<?xml version="1.0" encoding="UTF-8"?>
<svg id="Warstwa_2" data-name="Warstwa 2" xmlns="http://www.w3.org/2000/svg" viewBox="0 0 2962.77 993.26">
  <defs>
    <style>
      .cls-1 {
        fill: none;
      }

      .cls-2 {
        fill: #dadada;
      }
    </style>
  </defs>
  <g id="Warstwa_1-2" data-name="Warstwa 1">
    <g>
      <path class="cls-2" d="M280.61,884.11c2.38-11.64,31.57-12.76,42.29-13.41,13.57-.51,27.22-1.59,40.53-5.17,106.73-24.16,89.68-205.61-1.32-236.67-16.25-5.15-34.28-4.44-52.99,4.63-4.08,2.02-8.83,4.72-10.3,8.95-1.55,6.44.37,9.64-7.25,13.55-6.51,3.81-14.18,9.51-21.69,7.56-17.53-7.26-15.36-6.46-31.05,3.01-4.59,1.88-8.8-.41-13.86-1.93-4.05-1.45-8.63-1.38-12.64-2.72-13.55-7.88,14.07-23.81,1.19-29.58-6.82-2.21-14.14,3.77-20.3,6.23-13.36,5.55-17.51-.95-28.98-6.3-9.69-4.55-22.27,7.54-27.9,4.5-3.2-2.88-3.28-8.12-5.71-11.66-7.69-11.07-5.13-16.27,6.93-20.46,6.69-1.78,23.21-5.88,13.55-14.95-2.99-2.74-8.07-4.14-11.31-6.63-7.26-5.83,1.97-13.25,6.85-19.16,6.46-7.16,14.71-12.7,23.47-16.83,3.38-2.15,11.5-4.52,11.34-9.01-2.41-4.24-7.88-4.2-12.93-3.91-7.82.34-16.97,6.8-23.83.89-4.03-3.75-3.23-11.21-8.68-13.55-9.73-3.89-42.6,5.32-47.71-4.5-3.08-6.7,4.87-12.41,4.57-18.8-1.61-4.25-6.96-6.2-8.97-10.44-3.92-7.08,1.66-14.22,8.38-16.8,8.59-3.61,4.46-6.46,1.72-13.66-1.91-5.19.3-23.12,4.05-27.11,7.67-6.59,20.11.48,28.26-1,7.96-1.36,6.79-14.21,15.68-14.18,4.86-.3,10.12,2.44,15.03,3.19,4.36.85,8.54.13,12.9.11,8.31-.1,16.65,5.28,24.8,2.61,12.64-4.86,1.44-11.33-5.28-14.55-6.84-4.08-13.46-6.27-20.99-7.91-4.63-1.25-10.62-4.48-9.42-10.01,1.12-4.44,7.98-8.04,10.71-11.99,4.83-7.37-3.27-13.96-10-17.55-6.72-3.88-14.54-3.25-21.52-5.81-12.8-5.37-2.85-18.82.43-27.67,3.73-8.81,3.45-19.44,9.37-27.19,5.5-6.32,14.51-3.86,21.87-4.58,7.66-.93,15.65-4.62,23.56-2.42,10.71,1.07,28.38,15.91,36.84,5.88,7-11.94-12.19-16.54-19.93-20.86-9.5-4.09-9.71-10.34-7.14-20.6,1.19-5.08,1.18-11.27,4.92-14.43,6.71-5.52,19.29-2.65,16.27-15.31-3.09-14.28,13.88-11.7,21.72-19.35,13.58-11.02,24.88-1.38,34.2,10.12,6.01,6.04,12.22,13.02,19.76,16.63,7.01,3.36,12.99-3.29,9.53-10.13-1.04-2.25-2.92-4.46-4.76-6.29-6.54-5.98-12.92-12.57-18.51-18.99-5.71-5.69-9.38-13.27-7.34-21.42,2.02-9.84.29-25.93,14.43-25.8,5.11-.31,10.42,1.13,15.55.89,5.06-.21,9.1-2.89,13.2-5.27,5.6-3.41,11.65-6.06,18.11-7.43,6.26-1.67,13.14-1.3,19.18-3.63,4.85-1.9,9.29-4.95,13.91-7.39,5.45-2.91,11.94-4.13,17.99-5.87,9.78-2.49,22.73-5.31,29.51,4.31,4.58,5.09,6.79,18.77,11.37,7.88,3.18-8.7,6.71-20.51,15.9-23.93,6.85-2.95,14.96-5.19,22.27-3.44,5.41,1.25,10.62,4.51,16.24,4.11,8.49-1.62,16.3-4.09,25.37-3.79,13.42-1.34,32.35,1.15,35.64,16.87,1.72,11.25,8.09,10.42,17.15,8.61,6.94-1.28,13.95-1.64,20.9-2.94,6.5-.91,15.66-4.39,20.22,1.9,4.98,12.23,7.43,10.27,19.77,8.43,6.12-.78,16.34-3.39,15.97,4.01-.12,3.38-5.37,9.78-.97,11.91,2.54.73,8.63-1.23,13.04-1.22,7.01-.13,13.24,2.06,20.61,3.36,4.08.82,9.25,1.59,11.13,5.72,2.05,6.33-4.42,11.76-7.8,16.56-4.98,6.35-9.05,13.58-12.2,21.12-5.71,12.88-1.87,15.96,11.41,13.09,8.36-1.48,17.27-2.02,25.4-2.83,9.99-1.45,20.22.02,25.64,9.65,5.31,8.8,11.71,16.18,18.6,23.96,5.81,6.99,11.01,15.42,17.7,21.38,8.11,6.86,19.53,11.21,14.34,24.24-4.09,12.45-10.76,24.99-24.05,28.4-10.29,4.36-32.89,8.37-30.06,23.8,8.21,15.33,62.59-35.15,84.75-21.56,18.99,11.77-.7,32.99,9.09,36.1,4.87.73,9.95-2.2,14.86-2.5,5.87-.88,11.64,3.05,10.45,9.81-.26,5.46-6.09,12.01-2.44,17.06,2.63,3.56,9.75,4.89,9.92,10.09.27,4.04-1.56,8.35-.15,12.3,1.59,5.28,8.29,9.07,7.16,14.91-1.07,5.06-5.33,8.93-8.74,12.69-5.14,5.33-10.06,11.21-16.1,14.13-4.47,3.12-17,2.83-18.95,6.99,2.9,5.27,12.32,6.86,18.09,7.78,6.35.82,14.56-1.58,19.08,3.62,5.07,6.53-4.73,14.5-2.44,21.05,4.14,5.88,14.6,5.38,18.35,12.2,2.9,4.87,1.57,10.04,2.25,15.13.42,5.04,2.82,10.88.1,15.47-4.96,9.2-24.02,3.75-23.19,16.81-.04,4.77,3.69,11.35.58,15.54-6.95,3.84-17.21-11.3-23.21-8.44-2.47,2.92-3.06,8.56-3.89,12.49-1.88,7.96,4.91,11.77,12.08,12.79,9.7,2.27,17.48,1.32,16.57,15.49-1.24,11.33,2.2,30.31-10.77,35.62-6.7,2.58-14.13,1.97-20.64,4.71-11.01,5.14-18.5,14.29-31.84,9.4-5.47-1.61-10.59-4.3-16.17-5.58-6.94-1.81-13.44-2.93-19.23-6.44-5.48-3.51-16.53-10.67-21.88-4.15-.96,1.86,0,4.66.62,7.92.96,3.77.89,7.93,2.81,11.36,2.68,4.27,9.17,6.47,11.16,10.79,2.46,5.95-5.3,8.31-9.52,11.07-3.63,2.14-4.64,5.77-6.11,9.79-3.24,7.97-12.27,18.19-20.73,20.26-12.01.78-24.38-2.17-36.14-4.3-9.85-3.31-19.94-5.58-30.19-6.62-16.94-2.19-16.93-19.37-30.21-22.8-4.65-.93-9.56-.36-14.2-1.59-26.76-7.17-10.92-23.18-22.41-36.28-8.96-9.71-20.06-21.06-32.97-23.41-28.86-4.74-44.95,37.33-47.48,61.77-2.93,47.15-2.55,135.6,25.7,174.49,23.84,29.51,65.88,28.74,100.19,34.36,7.18,1.53,25.64,3.57,27.11,10.12-.27,1.36-2.79,2.34-6.49,2.81-16.48,1.63-34.39-.29-51.26-.15-89.08.93-205.15-.01-296.88.31-3.34.05-10.1-.12-10.53-2.38l-.02-.07ZM525.21,514.64c-1.08-1.74-3.21-2.66-5.88-2.46-6.41.28-11.09,5.5-16.25,8.73-2.34,1.43-4.88,2.53-7.48,3.39-3.84,1.3-7.13,2.01-8.78,4.05-1.79,2.3-1.67,5.14-1.7,8.14.08,4.51.23,9.57.33,14.26.31,4.89-.21,13.05.95,16.19.9,1.02,2.6-1.22,3.45-1.91,5.26-5.34,17.45-17.95,25.46-26.17,5.33-5.39,7.68-7.92,9.28-13.98.83-3.18,2.44-7.07.7-10.14l-.07-.11ZM446.5,542.65c-2.77-1.83-6.2-1.3-10.25-1.03-4,.37-8.83-.36-12.59-.51-1.3,0-2.11-.02-2.67.53-.26.32-.21.81.14,1.49.79,1.43,2.19,2.95,3.47,4.4,6.08,6.57,15.45,16.96,21.65,23.47,1.38,1.24,3.13,3.25,4.12,1.28.93-2.96.49-7.4.47-11.05-.54-5.73.45-14.78-4.22-18.49l-.12-.09ZM558.45,546.59c-2.02-3.99-10.75-6.05-15.93-6.06-4.99-.03-9.07,2.93-12.91,5.86-15.15,11.44-29.64,25.65-35.39,43.85-3.17,9.79-.39,13.3,8.97,7.33,11.79-7.14,22.12-16.53,33.37-24.42,5.29-3.85,11.35-6.87,15.95-11.58,3.43-3.95,7.82-9.79,6.01-14.85l-.06-.13ZM450.41,635.5c.87-.23,1.41-1.56,1.68-3.81.47-4.68.29-9.89.22-14.65.03-10.49-4.01-19.18-8.67-28.21-6.85-13.38-17.49-22.37-28.18-32.32-3.04-2.71-6.74-6.34-10.87-4.4-2.87,1.27-6.02,5.02-10.6,5.69-6.96,1.22-18.82-3.37-23.94,1.22-2.15,2.93,1.2,6.35,4.31,6.36,3.09.39,9,5.09,11.41,10.38,5.37,10.15,18.08,16.13,27.01,23.21,10.31,7.41,18.08,16.12,26.18,25.53,2.53,2.89,5.24,6.22,7.8,8.86,1.47,1.48,2.69,2.35,3.57,2.16l.07-.02ZM594,577.29c3.96-2.61,2.37-7.32-1.66-8.71-14.51-3.65-34.01,6.13-46.87,14.51-2.06,1.6-4.87,3.37-4.65,6.04.3,2.05,3.48,3.78,7.51,5.74,6.07,2.89,11.86,6.55,17.08,10.75,3.87,3.1,9.46,8.17,11.54,9.27,5.73,2.94-12.67-16.46-13.03-17.93-2.62-3.34-5.38-9.49-3.45-12.46,3.02-4.42,9.42-.64,13.74-.73,3.36.21,6.38-1.07,9.96-2.28,3.24-1.21,6.85-2.17,9.7-4.11l.12-.09ZM371.96,584.13c.27-.82-.76-1.99-2.7-3.27-6.1-3.68-14.37-6.9-21.73-6.19-4.88.7-8.84,7.27-4.98,10.84,3.69,2.48,8.85.5,13.11.59,3.26-.21,6.66-.26,9.83-.34,3.52-.1,6.07-.51,6.45-1.56l.02-.07ZM354.69,612.58c-.46-2.6-4.31-4.65-6.67-6.1-9.83-5.57-19.17-9.58-30.08-10.48-9.68-.89-21.42.71-31.01,4.31-6.41,2.41-4.94,8.43.76,11.45,3.09,2.02,7.1,2.18,9.63,4.31,2.97,3.71-3.33,9.35-3.51,12.6.53,1.62,4.87-.34,6.56-.72,15.08-5.16,31.08-7.58,46.51-10.92,2.65-.75,7.48-1.37,7.81-4.34v-.09ZM376.98,600.53c-4.67-.54-13.69-1.24-16.82.68-1.88,1.54.47,3.86,1.77,5.32,6.39,6.27,13.4,12.15,20.66,17.45,5.33,3.52,13.49,10.59,13.84,2.43.12-3.89-.67-8.4-1.41-12.24-1.5-9.59-8.79-12.3-17.81-13.61l-.22-.03ZM434.71,669.06c.4-.24.51-1.17.34-2.63-3.7-19.38-13.22-37.75-27.04-51.07-1.95-1.73-5.06-4.95-7.54-4.02-2.4,1.79-1.03,6.66-.45,9.47,3.1,13.56,11.74,21.98,20.8,32.27,2.89,3.33,5.77,6.97,8.37,10.46,1.11,1.48,2.13,2.81,2.97,3.79,1.17,1.35,2.03,2,2.51,1.77l.04-.02Z"/>
      <g>
        <path class="cls-2" d="M1005.79,411.69l.37-6.5v-59.82l-.37-5.24c7.14-.21,13.7-.37,17.19-.37,17.93,0,26.34,3.97,26.34,18.56,0,10.15-7.56,17.66-17.61,19.09,1.75,1.43,3.6,4.07,5.24,6.56l14.17,21.21,4.87,6.5h-9.47l-3.7-6.5-18.4-27.5-10.31-.05v27.55l.37,6.5h-8.67ZM1014.09,374.73h9.68c10.95,0,16.92-5.55,16.92-15.71,0-13.59-5.08-16.29-17.51-16.29-2.27,0-6.13.21-9.1.37v31.63Z"/>
        <path class="cls-2" d="M1060.27,384.03c0-18.83,9.36-29.14,24.7-29.14,14.12,0,20.1,8.67,20.1,21.53,0,2.8-.16,3.91-.26,4.81l-.21.21-35.75.05c.05,20.57,5.5,28.03,17.29,28.03,5.82,0,10.68-1.9,15.28-4.76l1.48,2.64c-4.92,3.17-10.63,5.29-17.88,5.29-16.5,0-24.75-11.05-24.75-28.66ZM1096.92,378.64v-3.76c0-11.95-4.07-17.29-12.38-17.29-9.84,0-14.6,7.72-15.71,21.53l28.08-.48Z"/>
        <path class="cls-2" d="M1114.48,411.69v-2.86l31.89-49.98h-24.65l-6.03.32v-3.28h39.08v3.01l-31.57,49.82h26.07l6.88-.32-.53,3.28h-41.15Z"/>
        <path class="cls-2" d="M1160.87,436.29l2.01-5.45c1.43.69,4.34,1.59,7.3,1.59,6.35,0,8.88-6.88,13.12-17.51l3.28-8.3h-3.17l-19.41-45.48-2.75-5.24h9.04l1.9,5.29,16.18,39.93h.69l17.24-39.88,1.22-5.34h5.02l-2.38,5.29-23.17,54.42c-5.18,12.27-8.67,22.27-18.25,22.27-3.44,0-6.72-1-7.88-1.59Z"/>
        <path class="cls-2" d="M1217.35,385.57c0-18.99,10.31-30.67,28.29-30.67,3.6,0,6.72.42,9.94,1.48v-21.79l-.32-5.29,7.83-.48.05,76.32.37,6.45h-7.88l.95-8.51h-.26c-3.17,4.07-9.84,9.63-19.09,9.63-12.96,0-19.89-11.16-19.89-27.13ZM1255.59,400.75v-40.93c-2.91-1.06-5.66-1.8-10.68-1.8-10.31,0-19.36,7.09-19.36,28.03,0,14.12,4.6,22,14.39,22,5.66,0,11.85-3.12,15.65-7.3Z"/>
        <path class="cls-2" d="M1277.76,384.03c0-18.83,9.36-29.14,24.7-29.14,14.12,0,20.1,8.67,20.1,21.53,0,2.8-.16,3.91-.26,4.81l-.21.21-35.75.05c.05,20.57,5.5,28.03,17.29,28.03,5.82,0,10.68-1.9,15.28-4.76l1.48,2.64c-4.92,3.17-10.63,5.29-17.88,5.29-16.5,0-24.75-11.05-24.75-28.66ZM1314.41,378.64v-3.76c0-11.95-4.07-17.29-12.38-17.29-9.84,0-14.6,7.72-15.71,21.53l28.08-.48Z"/>
        <path class="cls-2" d="M1337.58,411.69l.32-6.45v-44.05l-.37-5.13,8.09-.42-.9,9.41h.26c3.86-4.55,12.11-10.15,20.94-10.15,9.47,0,14.91,5.87,14.91,16.92v33.42l.37,6.45h-8.46l.37-6.45v-30.62c0-6.45-.58-14.54-11.85-14.54-7.14,0-11.48,3.23-15.6,7.4v37.76l.32,6.45h-8.41Z"/>
        <path class="cls-2" d="M1394.54,384.46c0-16.4,10.42-29.56,27.66-29.56,5.24,0,8.78,1.06,12.53,3.01l-2.17,3.28c-1.43-1.06-3.01-2.06-4.71-2.59-1.8-.63-3.91-.85-6.08-.85-11.21,0-18.46,10.37-18.4,26.29,0,13.27,4.44,25.6,18.14,25.6,4.55,0,7.99-1.48,11.85-3.81l1.43,2.8c-4.07,2.59-8.36,4.07-14.28,4.07-17.45,0-25.97-13.59-25.97-28.24Z"/>
        <path class="cls-2" d="M1430.24,436.29l1.27-2.43c2.49.9,4.12,1.22,6.56,1.22,8.09,0,10.95-3.75,10.95-19.78v-54.1l-.37-5.13,7.77-.48v58.44c0,15.97-3.7,23.75-17.77,23.75-3.65,0-6.19-.85-8.41-1.48ZM1447.01,340.82c0-2.96,2.38-5.34,5.24-5.34s5.34,2.38,5.34,5.34-2.43,5.24-5.34,5.24-5.24-2.38-5.24-5.24Z"/>
        <path class="cls-2" d="M1472.03,397.68c0-15.81,13.8-19.3,34.22-19.3v-4.23c0-8.2-.16-16.02-13.59-16.02-3.33,0-6.51.58-9.26,1.38-2.49.85-4.07,1.64-6.19,2.96l-1.48-3.38c4.44-2.17,11.32-4.18,19.2-4.18,17.24,0,19.41,9.15,19.41,19.73v30.62l.32,6.29-8.14.48.63-9.1-.26-.05c-3.97,4.65-11.95,9.84-20.31,9.84-8.83,0-14.54-5.98-14.54-15.02ZM1506.24,400.64v-20.15c-20.57,0-27.03,4.65-27.03,16.61,0,7.4,3.81,10.84,10.74,10.84,5.13,0,10.84-1.53,16.29-7.3Z"/>
        <path class="cls-2" d="M1550.89,408.41l1.8-3.81c1.96,1.16,4.07,2.27,6.45,3.17,3.23,1.06,6.82,1.75,11.42,1.75,9.41,0,15.5-4.34,15.44-15.55-.05-9.25-5.24-11.42-16.77-17.24-10.74-5.39-16.66-9.57-16.71-19.52-.05-12.85,11.85-18.09,24.91-18.09,6.72,0,11.05,1.22,15.6,2.91l-1.85,3.86c-1.96-1.06-4.02-1.9-6.35-2.54-2.43-.69-5.24-1.06-8.57-1.06-8.67,0-15.18,3.7-15.13,13.75.05,8.04,3.75,10.58,13.86,15.5,11.79,5.55,19.57,10.15,19.62,21,.11,12.75-9.73,20.15-25.12,20.15-8.3,0-15.65-2.7-18.62-4.28Z"/>
        <path class="cls-2" d="M1603.67,384.03c0-18.83,9.36-29.14,24.7-29.14,14.12,0,20.1,8.67,20.1,21.53,0,2.8-.16,3.91-.26,4.81l-.21.21-35.75.05c.05,20.57,5.5,28.03,17.29,28.03,5.82,0,10.68-1.9,15.28-4.76l1.48,2.64c-4.92,3.17-10.63,5.29-17.88,5.29-16.5,0-24.75-11.05-24.75-28.66ZM1640.32,378.64v-3.76c0-11.95-4.07-17.29-12.38-17.29-9.84,0-14.6,7.72-15.71,21.53l28.08-.48Z"/>
        <path class="cls-2" d="M1663.49,411.69l.32-6.45v-44.05l-.37-5.13,8.09-.42-.9,9.41h.26c3.86-4.55,12.11-10.15,20.94-10.15,9.47,0,14.91,5.87,14.91,16.92v33.42l.37,6.45h-8.46l.37-6.45v-30.62c0-6.45-.58-14.54-11.85-14.54-7.14,0-11.48,3.23-15.6,7.4v37.76l.32,6.45h-8.41Z"/>
        <path class="cls-2" d="M1724.11,340.82c0-2.96,2.38-5.34,5.24-5.34s5.34,2.38,5.34,5.34-2.43,5.24-5.34,5.24-5.24-2.38-5.24-5.24ZM1725.64,411.69l.37-6.45v-43.9l-.37-5.29,7.99-.42v49.61l.32,6.45h-8.3Z"/>
        <path class="cls-2" d="M1748.22,384.62c0-15.07,9.25-29.72,26.44-29.72s25.7,13.96,25.76,28.29c0,14.76-9.25,29.51-26.71,29.51-16.08,0-25.49-13.06-25.49-28.08ZM1791.96,383.88c0-14.97-5.98-26.13-17.82-26.13-10.74,0-17.45,10.74-17.45,25.86s5.87,25.86,17.66,25.86,17.56-11.64,17.61-25.6Z"/>
        <path class="cls-2" d="M1814.92,411.69l.32-6.45v-44.05l-.37-5.13,8.09-.42-.9,10h.26c4.5-5.66,11.69-10.68,21.26-10.68l-.79,6.5c-1-.16-1.96-.21-2.86-.16-8.36.26-13.17,3.17-16.92,6.98v36.97l.32,6.45h-8.41Z"/>
        <path class="cls-2" d="M1849.35,397.68c0-15.81,13.8-19.3,34.22-19.3v-4.23c0-8.2-.16-16.02-13.59-16.02-3.33,0-6.51.58-9.26,1.38-2.49.85-4.07,1.64-6.19,2.96l-1.48-3.38c4.44-2.17,11.32-4.18,19.2-4.18,17.24,0,19.41,9.15,19.41,19.73v30.62l.32,6.29-8.14.48.63-9.1-.26-.05c-3.97,4.65-11.95,9.84-20.31,9.84-8.83,0-14.54-5.98-14.54-15.02ZM1883.57,400.64v-20.15c-20.57,0-27.03,4.65-27.03,16.61,0,7.4,3.81,10.84,10.74,10.84,5.13,0,10.84-1.53,16.29-7.3Z"/>
      </g>
      <g>
        <path class="cls-2" d="M1007.47,660.86l2.23-16.13,10.36-147.8-.52-14.69h44.07l-2.23,14.69-10.89,154.36h40.66l16.53-1.31-.79,10.89h-99.41Z"/>
        <path class="cls-2" d="M1135.07,597.91c0-44.33,24.26-79.61,73.44-79.61,34.62,0,52.72,12.85,52.72,32.26,0,30.3-28.98,42.36-82.1,43.8,0,29.64,8.53,53.51,36.72,53.51,11.8,0,21.51-3.54,30.43-9.18l2.23,6.16c-11.15,8.92-29.25,19.15-54.3,19.15-43.93,0-59.15-30.82-59.15-66.1ZM1221.37,545.98c-.26-12.85-4.59-19.8-13.12-19.8-15.61,0-26.62,23.74-28.98,62.3,36.33-4.98,42.23-27.54,42.1-42.49Z"/>
        <path class="cls-2" d="M1282.87,653.91l5.12-12.07c4.85,4.07,9.57,7.61,15.61,10.1,5.9,2.36,12.85,3.67,20.98,3.67,15.74,0,24.53-5.9,24.53-25.84,0-13.64-8.13-17.05-24.53-25.71-10.75-5.77-31.61-16.66-31.61-42.1,0-31.08,24.66-43.67,55.21-43.67,17.57,0,30.16,4.46,37.38,7.87l-6.03,12.46c-4.98-4.85-9.05-7.87-14.16-9.31-5.12-1.57-11.15-2.75-16.92-2.75-13.64,0-21.11,9.57-21.11,25.05,0,10.23,5.25,14.69,18.1,21.38,16,8.26,38.82,19.67,38.82,45.12,0,29.51-25.18,45.9-58.75,45.9-21.9,0-37.38-7.08-42.62-10.1ZM1343.85,508.73l-11.54-3.54,21.64-44.98,32.79.26-42.89,48.26Z"/>
        <path class="cls-2" d="M1507.91,662.7l-2.1-25.18c5.12-70.3,5.38-74.1,5.38-78.03,0-6.82-1.18-12.59-5.64-12.59-8,0-16.66,4.98-33.84,18.75l-6.43,94.69-39.34,1.57-2.62-2.88,8.53-123.28-.26-13.51,40.92-2.23-4.59,41.05h1.44c10.62-19.8,28.72-42.75,57.05-42.75,18.62,0,26.75,13.9,26.75,34.89,0,3.41-.52,17.84-5.64,84.33l1.97,23.08-41.57,2.1Z"/>
        <path class="cls-2" d="M1570.19,719.35l8-18.1c7.34,3.93,15.08,7.61,25.57,7.61,19.15,0,23.48-12.33,33.05-34.75l8.26-19.54h-22.03l-35.54-119.21-5.9-14.03h50.62l1.44,14.29,20.85,93.25h2.1l40.79-93.25,3.67-14.29h15.61l-7.61,14.43-61.77,140.46c-12.33,28.2-20.85,50.49-47.21,50.49-14.43,0-25.18-4.85-29.9-7.34Z"/>
        <path class="cls-2" d="M1804.94,660.86l.52-6.03,84.33-162.89h-54.69l-15.08,1.31,1.71-11.02h115.8l-.39,5.25-85.25,163.54h58.49l16.13-1.31-1.84,11.15h-119.74Z"/>
        <path class="cls-2" d="M1961.52,603.94c0-52.72,24.52-85.51,79.87-85.51,27.15,0,44.07,3.93,54.3,6.69l-8.26,121.05.52,14.43-41.05,1.84,5.38-41.18h-1.44c-12.33,24.13-33.44,42.89-53.51,42.89-23.48,0-35.8-22.56-35.8-60.2ZM2048.73,616.53l6.03-87.08c-5.12-1.31-10.1-1.97-16-1.97-27.93,0-34.49,49.44-34.49,81.71,0,18.49,2.36,26.49,11.02,26.49,6.82,0,15.21-5.77,33.44-19.15Z"/>
        <path class="cls-2" d="M2226.96,595.94h7.34l28.59,64-42.36,1.84-2.49-3.02-28.72-66.62c20.59-9.18,36.59-19.8,36.59-36.46,0-7.21-2.62-11.41-7.74-11.41-8.13,0-18.62,8.26-35.8,21.64l-6.16,94.43-39.21,1.44-2.75-2.62,12.85-189.25-.26-14.03,42.89-2.49-5.51,78.56-5.38,28.98h1.57c19.02-33.57,36.46-42.89,55.08-42.89,23.34,0,32.79,16.26,32.79,32.66,0,18.49-13.9,35.41-41.31,45.25Z"/>
        <path class="cls-2" d="M2393.9,661.91c-14.69,10.23-21.38,17.71-21.38,26.62,0,7.08,3.93,9.71,9.97,9.71,6.82,0,15.08-4.07,22.69-13.51l6.95,6.56c-10.1,14.69-23.61,25.84-37.64,25.84s-21.51-9.18-21.51-20.59c0-13.25,10.36-25.05,28.2-36.85l4.98-38.43h-1.44c-12.33,24.13-33.44,42.89-53.51,42.89-23.48,0-35.8-22.56-35.8-60.2,0-52.72,24.52-85.51,79.87-85.51,27.15,0,44.07,3.93,54.3,6.69l-8.26,121.05.52,14.43-27.93,1.31ZM2388.65,529.45c-5.12-1.31-10.1-1.97-16-1.97-27.93,0-34.49,49.44-34.49,81.71,0,18.49,2.36,26.49,11.02,26.49,6.82,0,15.21-5.77,33.44-19.15l6.03-87.08Z"/>
        <path class="cls-2" d="M2480.45,622.83c0-6.03.26-9.18,6.16-92.2h-22.82l.52-9.31h22.82l3.28-45.25,42.1-2.23-3.41,47.48h35.54l-1.84,9.31h-34.23q-7.08,100.2-7.08,104.92c0,11.8,2.36,19.8,12.85,19.8,8.39,0,13.12-1.97,22.56-6.95l2.75,5.9c-9.84,5.25-20.07,9.57-36.46,9.57-36.59,0-42.75-19.41-42.75-41.05Z"/>
        <path class="cls-2" d="M2583,597.91c0-44.33,24.26-79.61,73.44-79.61,34.62,0,52.72,12.85,52.72,32.26,0,30.3-28.98,42.36-82.1,43.8,0,29.64,8.53,53.51,36.72,53.51,11.8,0,21.51-3.54,30.43-9.18l2.23,6.16c-11.15,8.92-29.25,19.15-54.3,19.15-43.93,0-59.15-30.82-59.15-66.1ZM2669.29,545.98c-.26-12.85-4.59-19.8-13.12-19.8-15.61,0-26.62,23.74-28.98,62.3,36.33-4.98,42.23-27.54,42.1-42.49Z"/>
        <path class="cls-2" d="M2833.48,595.94h7.34l28.59,64-42.36,1.84-2.49-3.02-28.72-66.62c20.59-9.18,36.59-19.8,36.59-36.46,0-7.21-2.62-11.41-7.74-11.41-8.13,0-18.62,8.26-35.8,21.64l-6.16,94.43-39.21,1.44-2.75-2.62,12.85-189.25-.26-14.03,42.89-2.49-5.51,78.56-5.38,28.98h1.57c19.02-33.57,36.46-42.89,55.08-42.89,23.34,0,32.79,16.26,32.79,32.66,0,18.49-13.9,35.41-41.31,45.25Z"/>
      </g>
    </g>
    <rect class="cls-1" width="2962.77" height="993.26"/>
  </g>
</svg>